<?xml version="1.0" encoding="UTF-8"?>
<svg id="Capa_1" data-name="Capa 1" xmlns="http://www.w3.org/2000/svg" viewBox="0 0 701.2 705.71">
  <defs>
    <style>
      .cls-1 {
        fill: #f5c718;
      }

      .cls-2 {
        fill: #092241;
      }
    </style>
  </defs>
  <path class="cls-2" d="M701.2,353.24c0,194.66-157.81,352.47-352.47,352.47C171.55,705.71,24.91,574.98,0,404.72c44.74,129.75,167.91,222.96,312.86,222.96,182.73,0,330.87-148.13,330.87-330.86,0-93.32-38.64-177.62-100.79-237.76,95.36,63.08,158.26,171.29,158.26,294.18Z"/>
  <path class="cls-1" d="M13.85,297.34C13.85,133.13,146.98,0,311.19,0c149.47,0,273.17,110.28,294.18,253.91-37.74-109.46-141.65-188.09-263.92-188.09-154.15,0-279.12,124.96-279.12,279.11,0,78.72,32.6,149.84,85.03,200.57C66.92,492.29,13.85,401.01,13.85,297.34Z"/>
  <path class="cls-1" d="M449.85,347.47c1,53.93-42.92,97.85-96.85,96.85-50.82-.94-92.3-42.41-93.24-93.24-1-53.93,42.92-97.85,96.85-96.85,50.82.94,92.3,42.41,93.24,93.24Z"/>
  <path class="cls-2" d="M275.35,399.52c-5.44.39-29.47-55.92-4.37-99.27,23.72-40.96,79.43-49.86,82.22-44.71,2.52,4.64-39.16,18.47-62.1,62.25-21.92,41.83-11.22,81.42-15.75,81.74Z"/>
</svg>